<svg xmlns="http://www.w3.org/2000/svg" xmlns:xlink="http://www.w3.org/1999/xlink" viewBox="0,0,256,256" width="480px" height="480px" fill-rule="nonzero"><g fill="none" fill-rule="nonzero" stroke="none" stroke-width="1" stroke-linecap="butt" stroke-linejoin="miter" stroke-miterlimit="10" stroke-dasharray="" stroke-dashoffset="0" font-family="none" font-weight="none" font-size="none" text-anchor="none" style="mix-blend-mode: normal"><g transform="scale(6.4,6.4)"><path d="M20,28.9c-11.402,0 -20,-3.73 -20,-8.9c0,-5.17 8.598,-9 20,-9c11.402,0 20,3.83 20,9c0,5.17 -8.598,8.9 -20,8.9zM20,13.932c-9.729,0 -17.125,3.266 -17.125,6.131c0,2.865 7.396,6.005 17.125,6.005c9.729,0 17.125,-3.266 17.125,-6.131c0,-2.865 -7.396,-6.005 -17.125,-6.005z" fill="#b54e4e"></path><path d="M12.402,38c-0.001,0 0,0 0,0c-0.931,0 -1.781,-0.216 -2.528,-0.642c-1.22,-0.697 -2.095,-1.928 -2.532,-3.562c-1.146,-4.282 0.703,-11.482 4.713,-18.344c4.705,-8.045 10.952,-13.449 15.544,-13.449c0.93,0 1.78,0.216 2.527,0.642c1.218,0.695 2.094,1.925 2.531,3.558c1.147,4.282 -0.703,11.483 -4.715,18.345c-4.701,8.046 -10.947,13.452 -15.54,13.452zM27.599,5.003c-2.888,0 -8.409,4.193 -12.954,11.963c-4.123,7.056 -5.332,12.909 -4.404,16.054c0.251,0.849 0.605,1.438 1.121,1.732c2.361,1.348 8.809,-2.85 13.991,-11.717c4.125,-7.057 5.46,-12.785 4.406,-16.055c-0.271,-0.841 -0.604,-1.435 -1.119,-1.728c-0.293,-0.168 -0.634,-0.249 -1.041,-0.249z" fill="#b54e4e"></path><path d="M27.599,37.997v0c-4.597,-0.001 -10.843,-5.405 -15.544,-13.449c-4.01,-6.862 -5.859,-14.063 -4.713,-18.344c0.437,-1.634 1.312,-2.865 2.531,-3.561c0.748,-0.427 1.598,-0.643 2.527,-0.643c4.595,0 10.84,5.406 15.542,13.452c4.011,6.861 5.86,14.062 4.714,18.345c-0.438,1.633 -1.313,2.863 -2.53,3.558c-0.747,0.426 -1.598,0.642 -2.527,0.642zM12.4,5c-0.407,0 -0.747,0.082 -1.04,0.248c-0.515,0.294 -0.874,0.881 -1.12,1.732c-0.928,3.208 0.281,8.999 4.404,16.055c4.541,7.769 10.063,11.962 12.954,11.962v0c0.408,0 0.748,-0.082 1.041,-0.249c0.514,-0.292 0.883,-0.876 1.118,-1.728c0.867,-3.146 -0.281,-9 -4.405,-16.055c-4.541,-7.771 -10.062,-11.965 -12.952,-11.965z" fill="#b54e4e"></path><path d="M23.5,20c0,1.935 -1.565,3.5 -3.5,3.5c-1.935,0 -3.5,-1.565 -3.5,-3.5c0,-1.935 1.565,-3.5 3.5,-3.5c1.935,0 3.5,1.565 3.5,3.5z" fill="#ff5a5f"></path><path d="M20,24c-2.206,0 -4,-1.794 -4,-4c0,-2.206 1.794,-4 4,-4c2.206,0 4,1.794 4,4c0,2.206 -1.794,4 -4,4zM20,17c-1.654,0 -3,1.346 -3,3c0,1.654 1.346,3 3,3c1.654,0 3,-1.346 3,-3c0,-1.654 -1.346,-3 -3,-3z" fill="#b54e4e"></path><path d="M20,28.068c-10.654,0 -19,-3.544 -19,-8.068c0,-4.524 8.346,-8.068 19,-8.068c10.654,0 19,3.544 19,8.068c0,4.524 -8.346,8.068 -19,8.068zM20,12.932c-9.757,0 -18,3.237 -18,7.068c0,3.831 8.243,7.068 18,7.068c9.757,0 18,-3.236 18,-7.068c0,-3.832 -8.243,-7.068 -18,-7.068z" fill="#ff5a5f"></path><path d="M12.402,37c-0.001,0 0,0 0,0c-0.755,0 -1.438,-0.172 -2.033,-0.511c-0.996,-0.569 -1.689,-1.562 -2.062,-2.952c-1.081,-4.037 0.729,-10.938 4.61,-17.581c4.462,-7.626 10.499,-12.953 14.682,-12.953c0.754,0 1.438,0.172 2.032,0.511c0.995,0.568 1.688,1.56 2.061,2.948c1.081,4.037 -0.729,10.938 -4.612,17.582c-4.459,7.628 -10.494,12.956 -14.678,12.956zM27.599,4.003c-3.784,0 -9.595,5.239 -13.817,12.458c-3.695,6.325 -5.507,13.083 -4.508,16.818c0.301,1.123 0.836,1.91 1.592,2.342c0.441,0.251 0.957,0.379 1.535,0.379c3.785,0 9.595,-5.24 13.814,-12.461c3.697,-6.326 5.51,-13.085 4.509,-16.818c-0.3,-1.121 -0.835,-1.908 -1.59,-2.338c-0.441,-0.252 -0.957,-0.38 -1.535,-0.38z" fill="#ff5a5f"></path><g fill="#ff5a5f"><path d="M27.599,36.997v0c-4.187,-0.001 -10.224,-5.327 -14.681,-12.953c-3.882,-6.643 -5.691,-13.544 -4.61,-17.581c0.372,-1.39 1.065,-2.383 2.062,-2.952c0.594,-0.339 1.277,-0.511 2.03,-0.511c4.185,0 10.221,5.328 14.679,12.956c3.883,6.642 5.692,13.543 4.61,17.582c-0.371,1.389 -1.064,2.381 -2.059,2.948c-0.594,0.339 -1.277,0.511 -2.031,0.511zM12.4,4c-0.577,0 -1.094,0.128 -1.535,0.379c-0.756,0.432 -1.291,1.219 -1.592,2.342c-0.999,3.734 0.813,10.493 4.508,16.818c4.219,7.218 10.031,12.457 13.818,12.458v0c0.578,0 1.095,-0.128 1.536,-0.38c0.754,-0.43 1.289,-1.217 1.589,-2.338c1,-3.735 -0.812,-10.494 -4.508,-16.818c-4.22,-7.22 -10.029,-12.461 -13.816,-12.461z"></path></g></g></g></svg>